 <?xml version="1.0" encoding="utf-8"?>
<!-- Generator: Adobe Illustrator 26.3.1, SVG Export Plug-In . SVG Version: 6.00 Build 0)  -->
<svg version="1.1"
	 id="图层_1" xmlns:inkscape="http://www.inkscape.org/namespaces/inkscape" xmlns:rdf="http://www.w3.org/1999/02/22-rdf-syntax-ns#" xmlns:svg="http://www.w3.org/2000/svg" xmlns:dc="http://purl.org/dc/elements/1.1/" xmlns:cc="http://creativecommons.org/ns#" xmlns:sodipodi="http://sodipodi.sourceforge.net/DTD/sodipodi-0.dtd"
	 xmlns="http://www.w3.org/2000/svg" xmlns:xlink="http://www.w3.org/1999/xlink" x="0px" y="0px" viewBox="0 0 84 86"
	 style="enable-background:new 0 0 84 86;" xml:space="preserve">
<style type="text/css">
	.st0{fill:#F7C44D;}
</style>
<g transform="translate(0,-952.36218)">
	<g>
		<path class="st0" d="M11.3,952.9c-1,2.3-0.3,4.4,0.4,6.4c-0.7,2.3-1.1,5.7-0.8,8.8c0.4,3.3,2,6.7,5.1,7.8c0.8,1.2,1.6,2.3,2.4,3.5
			c-1.5-0.8-3.1-1.4-4.6-1.8c-2.7-0.8-5.3-1-7.2-1c-2.1-0.6-4.1-0.7-5.9-0.7c-0.5,0-1,0.5-0.9,1.1c0,0.5,0.5,1,1.1,0.9
			c2,0,3.2,0,5,0.6c2.5,5.2,5.6,7.9,8.8,8.8c3,0.8,5.9,0.1,8.5-1.2c1.4,1.9,2.7,3.8,4.1,5.6c-2-0.6-4.3-0.9-6.5-0.9
			c-4.2,0-8.3,0.6-10.5,0.8c-1.9-0.9-4-1.3-6-1.4c-0.5,0-1,0.6-0.9,1.1c0,0.5,0.6,1,1.1,0.9c1.2,0,3.4,0.3,5.1,1.2
			c2.7,3.4,6.9,4.9,11,5.2c3.8,0.3,7.7-0.4,10.5-1.8c1.8,2.3,3.6,4.6,5.4,6.7c-2.5-0.7-4.9-0.7-7.2-0.6c-4.2,0.3-8.4,1.3-10.4,1.4
			c-2.5-1.1-5.3-1.8-7.9-2.1c-0.5,0-1,0.4-1,1c0,0.5,0.4,1,1,1.1c2,0.2,4.8,0.7,7.3,2c2.7,3.4,6.9,4.5,11.1,4.4
			c4.1-0.1,8.2-1.3,11-2.9c2.2,2.5,4.5,4.8,6.8,7.1c-2.2-0.6-4.8-0.4-6.8-0.1c-3.5,0.5-6.7,1.7-8.8,2.4c-2.5-0.2-5-0.5-7.4,0.1
			c-0.5,0.1-0.8,0.7-0.7,1.2s0.7,0.9,1.2,0.7c1.2-0.3,3.7-0.4,6.3-0.1c6.6,5.1,15.4,3.8,20-0.7c2.2,1.9,4.4,3.7,6.8,5.5
			c-1.5,0-3,0.2-4.5,0.4c-3.7,0.7-7.1,2.1-9.2,2.8c-2.5-0.2-4.9-0.3-7.2,0.1c-0.5,0.1-0.9,0.6-0.9,1.2c0.1,0.5,0.7,0.9,1.2,0.8
			c1.7-0.3,4-0.3,6.4-0.1c3.4,2.6,7.5,3.3,11.3,2.9c3.4-0.4,6.6-1.8,8.9-3.8c5.5,3.6,11.6,6.9,18.7,10.2c0.5,0.2,1.1,0,1.4-0.5
			c0.2-0.5,0-1.1-0.5-1.3c-6.9-3.2-12.9-6.5-18.2-9.9c1.6-2.4,2.5-4.9,2.5-7.5c0-2.9-1.1-5.9-3.6-9.1c-0.7-2.3-0.7-3.4-0.2-5.1
			c0.2-0.6-0.3-1.3-1-1.3c-0.4,0-0.8,0.3-0.9,0.8c-0.5,1.9-0.5,3.6,0.1,5.9c-0.7,2-1.8,4.3-2.2,7.1c-0.3,1.9-0.1,4,0.9,6.3
			c-3.1-2.2-5.9-4.4-8.6-6.7c2.2-1.9,3.8-4.1,4.5-6.7c0.7-2.8,0.4-6.1-1.2-9.9c-0.2-2-0.1-4.1,0.3-5.7c0.2-0.7-0.5-1.3-1.2-1.2
			c-0.4,0.1-0.7,0.4-0.8,0.8c-0.4,1.8-0.6,3.9-0.3,6.1c-1.2,1.7-2.9,3.6-4,6.2c-0.9,2.1-1.2,4.6-0.4,7.6c-2.8-2.6-5.5-5.4-8.1-8.3
			c2.5-1.3,4.5-2.9,5.8-5.2c1.4-2.5,1.9-5.7,1.4-9.7l0,0c0.2-2.2,0.9-3.9,1.5-5.3c0.3-0.7-0.4-1.6-1.1-1.4c-0.3,0.1-0.6,0.3-0.7,0.6
			c-0.6,1.4-1.3,3.2-1.6,5.5c-1.6,1.3-3.7,2.7-5.4,4.9c-1.4,1.9-2.5,4.4-2.4,7.7c-1.8-2.1-3.6-4.4-5.3-6.7c2.2-1.9,3.8-4.1,4.5-6.7
			c0.7-2.8,0.4-6-1.1-9.7c0.2-2.3,0.5-3.8,1.2-5.2c0.3-0.6-0.3-1.5-1-1.4c-0.3,0-0.7,0.3-0.8,0.6c-0.7,1.6-1.2,3.4-1.3,5.8
			c-1.2,1.7-2.9,3.6-4,6.3c-0.7,1.7-1,3.6-0.8,5.9c-1.6-2.2-3.2-4.4-4.8-6.7c2.4-1.4,3.8-3.6,4.5-6.2c0.7-2.9,0.6-6.4,0-10.4
			c0.7-2,1.4-3.9,2.5-5.1c0.6-0.6,0.1-1.7-0.7-1.7c-0.3,0-0.5,0.1-0.7,0.3c-1.6,1.6-2.3,3.8-3,5.8c-1.8,1.7-3.6,3.9-4.5,6.9
			c-0.6,1.8-0.9,3.9-0.9,6.4c-1.5-2.1-3-4.2-4.6-6.5c1.4-2.4,1.7-4.8,1-7.3c-0.7-2.8-2.6-5.5-5.1-8.7c-0.7-1.6-0.9-3.2-0.5-4.7
			c0.3-0.5,0-1.2-0.5-1.5C12,952.3,11.6,952.5,11.3,952.9L11.3,952.9z"/>
	</g>
</g>
</svg>
